<svg width="24" height="24" viewBox="0 0 24 24" fill="none" xmlns="http://www.w3.org/2000/svg">
<mask id="mask0_7910_31205" style="mask-type:alpha" maskUnits="userSpaceOnUse" x="0" y="0" width="24" height="24">
<rect width="24" height="24" fill="#D9D9D9"/>
</mask>
<g mask="url(#mask0_7910_31205)">
<path d="M10.25 20H6C5.45 20 4.97917 19.8042 4.5875 19.4125C4.19583 19.0208 4 18.55 4 18V5H3V3H8V2H14V3H19V5H18V9.3C17.7167 9.21667 17.3875 9.14583 17.0125 9.0875C16.6375 9.02917 16.3 9 16 9V5H6V18H9.3C9.4 18.35 9.53333 18.6958 9.7 19.0375C9.86667 19.3792 10.05 19.7 10.25 20ZM8 16H9C9 14.95 9.16667 14.0875 9.5 13.4125L10 12.4V7H8V16ZM12 10.25C12.2833 10.0667 12.6042 9.88333 12.9625 9.7C13.3208 9.51667 13.6667 9.38333 14 9.3V7H12V10.25Z" fill="#1F1B13"/>
<path d="M16.2654 22C15.5353 22 14.8504 21.8624 14.2109 21.5872C13.5713 21.3121 13.0139 20.9368 12.5386 20.4614C12.0632 19.9861 11.6879 19.4287 11.4128 18.7891C11.1376 18.1496 11 17.4704 11 16.7518H12.6738C12.6738 17.7351 13.0251 18.5767 13.7277 19.2765C14.4303 19.9763 15.2752 20.3262 16.2624 20.3262C17.2458 20.3262 18.0873 19.9749 18.7871 19.2723C19.487 18.5697 19.8369 17.7248 19.8369 16.7376C19.8369 15.7542 19.4856 14.9127 18.783 14.2129C18.0804 13.513 17.2336 13.1631 16.2427 13.1631H16.1489L16.7589 13.773L15.8794 14.6525L13.5532 12.3262L15.8794 10L16.7589 10.8936L16.1489 11.4894H16.2482C16.979 11.4894 17.6635 11.627 18.3017 11.9021C18.94 12.1773 19.4991 12.5526 19.9791 13.0279C20.4592 13.5032 20.8369 14.0586 21.1121 14.694C21.3872 15.3294 21.5248 16.0109 21.5248 16.7384C21.5248 17.466 21.3872 18.1496 21.1121 18.7891C20.8369 19.4287 20.4616 19.9861 19.9862 20.4614C19.511 20.9368 18.9545 21.3121 18.3169 21.5872C17.6792 21.8624 16.9954 22 16.2654 22Z" fill="#1F1B13"/>
</g>
</svg>
